<svg xmlns="http://www.w3.org/2000/svg" width="32" height="32"><path fill="#fff" opacity=".1" d="M29.538 13.538c0 3.739-1.515 7.123-3.965 9.573S19.738 27.076 16 27.076s-7.123-1.515-9.573-3.965-3.965-5.835-3.965-9.573 1.515-7.123 3.965-9.573S12.262 0 16 0s7.123 1.515 9.573 3.965a13.496 13.496 0 013.965 9.573z"/><path fill="#fff" d="M18.05 9.428h1.124V7.471a14.408 14.408 0 00-1.637-.087c-1.62 0-2.73 1.019-2.73 2.892V12h-1.788v2.188h1.788v5.505h2.192v-5.504h1.715l.272-2.188h-1.988v-1.507c0-.632.171-1.065 1.052-1.065z"/></svg>